<svg xmlns="http://www.w3.org/2000/svg" viewBox="0 0 240 48" width="240" height="48">
  
  
  <g fill="#0071e3">
    <rect x="8" y="8" width="32" height="32" rx="6"></rect>
    <rect x="14" y="14" width="20" height="20" rx="2" fill="#fff"></rect>
    <rect x="18" y="18" width="12" height="12" rx="1.5" fill="#0071e3"></rect>
    
    <rect x="16" y="2" width="2.5" height="6" rx="0.6"></rect>
    <rect x="22.75" y="2" width="2.5" height="6" rx="0.6"></rect>
    <rect x="29.5" y="2" width="2.5" height="6" rx="0.6"></rect>
    <rect x="16" y="40" width="2.5" height="6" rx="0.6"></rect>
    <rect x="22.75" y="40" width="2.5" height="6" rx="0.6"></rect>
    <rect x="29.5" y="40" width="2.5" height="6" rx="0.6"></rect>
    <rect x="2" y="16" width="6" height="2.5" rx="0.6"></rect>
    <rect x="2" y="22.75" width="6" height="2.5" rx="0.6"></rect>
    <rect x="2" y="29.5" width="6" height="2.5" rx="0.6"></rect>
    <rect x="40" y="16" width="6" height="2.5" rx="0.6"></rect>
    <rect x="40" y="22.75" width="6" height="2.5" rx="0.6"></rect>
    <rect x="40" y="29.5" width="6" height="2.5" rx="0.6"></rect>
  </g>
  <text x="58" y="32" font-family="-apple-system, BlinkMacSystemFont, &#39;SF Pro Display&#39;, Inter, system-ui, sans-serif" font-size="26" font-weight="700" letter-spacing="-0.02em" fill="#1d1d1f">Metis</text>
</svg>